<svg version="1.1" id="fullsvg" xmlns="http://www.w3.org/2000/svg" x="0" y="0" viewBox="0 0 1012 712" xml:space="preserve">

    <style>.st4{fill:#5e5e5e}.st5{fill:#8e8e8e}.st6{fill:#dbdbdb}.st7{fill:#4c4c4c}.st10{fill:#d3d3d3}.st11{fill:#b7b7b7}</style>

    <g id="smoke">
        <g id="fire">
            <path id="XMLID_14_" d="M631.5 612.4c-25.2-10.3-47.7-19-54.5-25.9-7.1-7.3-19.7-8.3-33.6-3.6-6.2-5.2-10.3-9-11.8-10.4l-1-1c-5.3-5.8-71.2-73.6-176.7 29-6.4 6.2-12.5 12-18.3 17.3-21.7.5-48.9.9-58.7-21-2.3-5.3-5.8-8.3-10.1-9.6 60.1-46 68.7 3.8 92.1-69.3 23.3-73.1 54.7 13.3 61.3-40.7 6.7-54 14.9-39 4.8-114.6 0 0 30.9-8.3 61.4 0 0 0-22.2 49.8 5.2 110.4 27.3 60.6 52.7 19.1 61.3 37.4 8.8 18.3 59.1 18 78.6 102z" fill="#ff9017"/>
            <path id="XMLID_1_" d="M558 619.9c-14.8-10-28-18.6-32-25.3-4.2-7.1-11.6-8.1-19.7-3.5-3.6-5.1-6-8.8-6.9-10.2l-.6-.9c-3.1-5.7-41.8-72-103.7 28.4-3.8 6.1-7.3 11.7-10.7 16.9-12.7.5-28.7.9-34.5-20.6-1.4-5.2-3.4-8.1-5.9-9.4 35.3-45 40.4 3.7 54.1-67.8 13.7-71.5 32.1 13 36-39.8 3.9-52.8 8.7-38.2 2.8-112 0 0 18.1-8.1 36.1 0 0 0-13 48.7 3 108s30.9 18.7 36 36.5c5 17.9 34.6 17.6 46 99.7z" fill="#ffe424"/>
        </g>
        <g id="greysmoke">
            <path id="XMLID_24_" d="M941 712H8c.5-.6 1-1.2 1.6-1.7 38.9-42.3 90.9-58.6 134-64.3 30.9-4.1 57.3-2.6 71.1-1.3 4.7.5 9.2 1.7 13.6 3.3 8.3 3 34.9 3.5 107.4-50.1 5.8-4.3 11.9-8.9 18.3-13.9 105.4-82.4 171.3-28 176.7-23.3.3.3.6.5 1 .8 1.5 1.1 5.6 4.2 11.8 8.4C570.2 588 636.2 627 698 619.6c21.1-2.5 41.7-10.5 60-26.6 88-77 183 119 183 119z" fill="#c6c6c6"/>
            <path id="XMLID_23_" d="M916 712H0s2.8 0 9.6-1.7c16.2-4.1 55.1-17.8 134-64.3 4.3-2.6 8.8-5.2 13.4-8 0 0 77.9-72.5 109.9-64.7 4.3 1 7.7 3.5 10.1 7.7 9.8 17.6 37.1 17.3 58.7 16.9 22.6-.4 39.1-.8 23.3 19.1-31 39 110 85.7 119 25.4 6-39.9 38.2-65.1 65.4-72.5 13.9-3.8 26.5-3 33.6 2.9 6.8 5.6 29.3 12.6 54.5 20.8 23.3 7.6 48.9 16.4 66.5 26.1 22.3 12.3 31.5 26.2 6 41.4-67 40 113 42 119 31S954 681 916 712z" fill="#fdfdff"/>
        </g>
    </g>
    
    <g id="rocket">
        <g id="leftwing">
            <path id="XMLID_12_" class="st4" d="M420.5 305.4c-.9.4-1.7.8-2.5 1.2-1.6-2.6-3.1-5.3-4.7-8-3.4-6-6.7-12.4-9.7-19.1.9-1.5 1.8-2.9 2.7-4.2 3.3 8.3 6.9 16.1 10.6 23.4 1.2 2.2 2.4 4.5 3.6 6.7z"/>
            <path id="XMLID_19_" class="st5" d="M413.3 298.6c1.5 2.8 3.1 5.4 4.7 8-18.2 8.9-30.4 24.2-31.2 41.8v-3.5c0-25 6.3-47.9 16.8-65.4 3 6.6 6.3 13 9.7 19.1z"/>
        </g>
        <g id="rightwing">
            <path id="XMLID_11_" class="st4" d="M506.4 279.6c-3 6.7-6.3 13-9.6 18.9-1.6 2.8-3.1 5.5-4.7 8.1-.8-.4-1.7-.8-2.5-1.2 1.2-2.2 2.5-4.5 3.7-6.9 3.7-7.2 7.3-14.9 10.5-23.1.8 1.4 1.7 2.8 2.6 4.2z"/>
            <path id="XMLID_17_" class="st5" d="M523 344.8v3.5c-.8-17.5-12.9-32.7-31-41.7 1.6-2.6 3.2-5.3 4.7-8.1 3.3-6 6.6-12.3 9.6-18.9 10.4 17.5 16.7 40.3 16.7 65.2z"/>
        </g>
        <g id="thruster">
            <path id="XMLID_13_" class="st4" d="M475 319.5v5.2c-6-.4-12.5-.7-20-.7s-15 .3-20 .7v-5.2c0-1.7 1-3.5 2.7-3.5H472c1.7 0 3 1.8 3 3.5z"/>
            <path id="XMLID_15_" class="st5" d="M475 324.7v4.5c0 .7-.2 1.3-.6 1.8-.6.7-1.4 1-2.3 1h-34.3c-1 0-1.7-.3-2.2-1-.4-.5-.5-1.1-.5-1.8v-4.5c5-.4 12.5-.7 20-.7 7.4 0 13.9.3 19.9.7z"/>
        </g>
        
        <path id="body" class="st5" d="M519 200.5c0 27.2-6.5 52.7-15.3 74.9-3.3 8.2-6.8 15.9-10.5 23.1-1.2 2.4-2.4 4.7-3.7 6.9-2.8 5.2-5.7 10-8.5 14.5-.1.1-.1.2-.2.3-5.9-1-12.2-1.6-18.8-1.9-1.2 0-2.3-.1-3.5-.1h-6.8c-1.2 0-2.3.1-3.5.1-6.7.3-13 .9-18.9 1.9-.1-.1-.1-.2-.2-.3-2.8-4.5-5.7-9.4-8.5-14.6-1.2-2.2-2.4-4.5-3.6-6.8-3.7-7.3-7.3-15.1-10.6-23.4-8.8-22.1-15.2-47.6-15.2-74.7 0-28.7 7.2-55.5 16.8-78.5.1-.2.2-.4.2-.6 13.2 2 26.9 3.2 40.9 3.5h12.2c14-.3 27.7-1.5 40.9-3.5.1.2.2.4.2.6 9.4 23.1 16.6 49.9 16.6 78.6z"/>
            <g id="bottomwindow">
                <circle id="XMLID_4_" class="st6" cx="455" cy="248.9" r="16.1"/>
                <circle id="XMLID_30_" class="st7" cx="455" cy="248.9" r="11.4"/>
            </g>
            <g id="topwindow">
                <circle id="XMLID_2_" class="st6" cx="454.9" cy="179" r="27"/>
                <circle id="XMLID_28_" class="st7" cx="454.9" cy="179" r="20.1"/>
            </g>
            <path id="roof" d="M502 121.4c-15.1 2.3-30.8 3.6-47 3.6s-31.8-1.2-47-3.6c3.1-7.3 6.4-14.3 9.8-20.8 10.3-19.8 21.4-35.3 28.8-44.7 4.3-5.5 12.6-5.5 16.9 0 7.4 9.4 18.4 24.9 28.8 44.7 3.3 6.6 6.6 13.5 9.7 20.8z" fill="#ff0013"/>
    </g>
    
    <g id="moon">
        <path id="base" d="M1008 98c0 13.6-2.9 26.4-8.1 38.1-5.5 12.3-13.5 22.9-23.4 31.9-16.6 15-38.5 23.9-62.4 23.9-16.8 0-32.6-4.4-46.3-12.1-10.1-5.7-19-13.2-26.3-22C828 141.5 820 120.7 820 98c0-51.9 42.1-94 94-94 24.6 0 47 9.5 63.8 24.9 6.6 6.1 12.3 13.1 16.9 20.8 8.4 14.2 13.3 30.7 13.3 48.3z" fill="#ededed"/>
        <g id="XMLID_3_">
            <path id="hole14" class="st10" d="M994.7 49.8c-2.9 1.4-6.4 2.2-10.2 2.2-9.7 0-17.5-5.4-17.5-12 0-5 4.4-9.3 10.8-11.1 6.5 6.1 12.3 13.1 16.9 20.9z"/>
            <ellipse id="hole13" class="st10" cx="942.5" cy="86.2" rx="9.5" ry="11.2"/>
            <ellipse id="hole12" class="st11" cx="942.5" cy="86.2" rx="5.3" ry="6.2"/>
            <ellipse id="hole11" class="st10" cx="846.2" cy="77.8" rx="10.1" ry="13.8"/>
            <path id="hole10" class="st10" d="M889 164c0 8.1-9.3 14.8-21.3 15.8-10.1-5.7-19-13.2-26.3-22.1 3.8-5.7 12.6-9.8 22.8-9.8 13.7.1 24.8 7.3 24.8 16.1z"/>
            <ellipse id="hole9" class="st10" cx="892.1" cy="39.4" rx="21.9" ry="24.6"/>
            <path id="hole8" class="st10" d="M999.9 136.1c-5.5 12.3-13.5 22.9-23.4 31.9-2.8 1-5.6.9-8.6.9-19.1 0-34.5-10.7-34.5-23.9s15.4-24 34.5-24c14.5 0 26.9 6.3 32 15.1z"/>
            <ellipse id="hole7" class="st10" cx="875.8" cy="110.1" rx="16.3" ry="15.1"/>
            <ellipse id="hole6" class="st11" cx="892.4" cy="39.9" rx="12.6" ry="14.1"/>
            <ellipse id="hole5" class="st11" cx="875.7" cy="109.8" rx="9" ry="8.4"/>
            <path id="hole4" class="st11" d="M879 164c0 4.7-5.4 8.6-12.3 9.2-5.8-3.3-11-7.7-15.3-12.8 2.2-3.3 7.3-5.7 13.2-5.7 8 0 14.4 4.1 14.4 9.3z"/>
            <ellipse id="hole3" class="st11" cx="846.2" cy="77.8" rx="5.9" ry="8"/>
            <path id="hole2" class="st11" d="M988.9 45.9c-1.7.8-3.7 1.3-5.9 1.3-5.6 0-10.2-3.1-10.2-7 0-2.9 2.6-5.4 6.3-6.4 3.8 3.5 7.1 7.6 9.8 12.1z"/>
            <path id="hole1" class="st11" d="M988 139.4c-3.5 7.9-8.7 14.6-15 20.6-1.8 0-3.6.4-5.5.4-12.2 0-22.1-6.9-22.1-15.4s9.9-15.4 22.1-15.4c9.2.1 17.2 4.1 20.5 9.8z"/>
        </g>
    </g>
</svg>