<svg width="20" height="20" viewBox="0 0 20 20" fill="none" xmlns="http://www.w3.org/2000/svg">
<path d="M0 16.6667H8.33333V18.3333H0V16.6667ZM0 11.6667H8.33333V13.3333H0V11.6667ZM18.3333 8.33333H1.66667C1.22464 8.33333 0.800716 8.15774 0.488155 7.84518C0.175595 7.53262 0 7.10869 0 6.66667V1.66667C0 1.22464 0.175595 0.800716 0.488155 0.488155C0.800716 0.175595 1.22464 0 1.66667 0H18.3333C18.7754 0 19.1993 0.175595 19.5118 0.488155C19.8244 0.800716 20 1.22464 20 1.66667V6.66667C20 7.10869 19.8244 7.53262 19.5118 7.84518C19.1993 8.15774 18.7754 8.33333 18.3333 8.33333ZM1.66667 1.66667V6.66667H18.3333V1.66667H1.66667ZM18.3333 20H13.3333C12.8913 20 12.4674 19.8244 12.1548 19.5118C11.8423 19.1993 11.6667 18.7754 11.6667 18.3333V13.3333C11.6667 12.8913 11.8423 12.4674 12.1548 12.1548C12.4674 11.8423 12.8913 11.6667 13.3333 11.6667H18.3333C18.7754 11.6667 19.1993 11.8423 19.5118 12.1548C19.8244 12.4674 20 12.8913 20 13.3333V18.3333C20 18.7754 19.8244 19.1993 19.5118 19.5118C19.1993 19.8244 18.7754 20 18.3333 20ZM13.3333 13.3333V18.3333H18.3333V13.3333H13.3333Z" fill="black"/>
</svg>
