<svg width="14" height="14" viewBox="0 0 14 14" fill="none" xmlns="http://www.w3.org/2000/svg">
<path d="M12.9062 2.625H10.5V1.09375H9.625V2.625H4.375V1.09375H3.5V2.625H1.09375C0.919764 2.6252 0.752962 2.69441 0.629935 2.81743C0.506908 2.94046 0.437703 3.10726 0.4375 3.28125V12.4688C0.437703 12.6427 0.506908 12.8095 0.629935 12.9326C0.752962 13.0556 0.919764 13.1248 1.09375 13.125H12.9062C13.0802 13.1248 13.247 13.0556 13.3701 12.9326C13.4931 12.8095 13.5623 12.6427 13.5625 12.4688V3.28125C13.5623 3.10726 13.4931 2.94046 13.3701 2.81743C13.247 2.69441 13.0802 2.6252 12.9062 2.625V2.625ZM12.6875 12.25H1.3125V3.5H3.5V4.59375H4.375V3.5H9.625V4.59375H10.5V3.5H12.6875V12.25Z" fill="white"/>
<path d="M3.0625 6.125H3.9375V7H3.0625V6.125ZM5.46875 6.125H6.34375V7H5.46875V6.125ZM7.65625 6.125H8.53125V7H7.65625V6.125ZM10.0625 6.125H10.9375V7H10.0625V6.125ZM3.0625 8.09375H3.9375V8.96875H3.0625V8.09375ZM5.46875 8.09375H6.34375V8.96875H5.46875V8.09375ZM7.65625 8.09375H8.53125V8.96875H7.65625V8.09375ZM10.0625 8.09375H10.9375V8.96875H10.0625V8.09375ZM3.0625 10.0625H3.9375V10.9375H3.0625V10.0625ZM5.46875 10.0625H6.34375V10.9375H5.46875V10.0625ZM7.65625 10.0625H8.53125V10.9375H7.65625V10.0625ZM10.0625 10.0625H10.9375V10.9375H10.0625V10.0625Z" fill="white"/>
</svg>
