<svg width="28" height="20" viewBox="0 0 28 20" fill="none" xmlns="http://www.w3.org/2000/svg">
<path d="M8.7496 16.3952L7.98446 17.1235C7.93964 17.1693 7.88544 17.2059 7.82522 17.231C7.76499 17.256 7.70001 17.2691 7.63427 17.2694C7.56854 17.2691 7.50356 17.256 7.44333 17.231C7.3831 17.2059 7.32891 17.1693 7.28409 17.1235L0.152644 10.335C0.104492 10.2924 0.0660839 10.2408 0.0398197 10.1835C0.0135556 10.1261 0 10.0642 0 10.0017C0 9.9391 0.0135556 9.8772 0.0398197 9.81985C0.0660839 9.76249 0.104492 9.71091 0.152644 9.66832L7.27796 2.87729C7.32278 2.83151 7.37698 2.79496 7.4372 2.76987C7.49743 2.74479 7.56241 2.73172 7.62815 2.73145C7.69388 2.73172 7.75886 2.74479 7.81909 2.76987C7.87932 2.79496 7.93351 2.83151 7.97833 2.87729L8.74347 3.60564C8.79163 3.64823 8.83003 3.69981 8.8563 3.75717C8.88256 3.81452 8.89612 3.87642 8.89612 3.93899C8.89612 4.00155 8.88256 4.06345 8.8563 4.1208C8.83003 4.17816 8.79163 4.22974 8.74347 4.27233L2.72911 9.9975L8.74347 15.7227C8.83715 15.806 8.8958 15.9243 8.8958 16.056V16.0652C8.89596 16.1269 8.88301 16.188 8.85773 16.2449C8.83246 16.3017 8.79538 16.3531 8.74873 16.396L8.7496 16.3952ZM17.7922 0.852227L12.0842 19.6578C12.0479 19.7776 11.9637 19.879 11.8496 19.9403L11.847 19.9411C11.7933 19.9723 11.733 19.9916 11.6704 19.9978C11.6079 20.004 11.5447 19.9969 11.4854 19.977L11.488 19.9778L10.539 19.7303C10.4132 19.6957 10.3066 19.6155 10.2423 19.5069L10.2414 19.5044C10.2083 19.4505 10.1879 19.3905 10.1814 19.3283C10.1749 19.2662 10.1825 19.2035 10.2037 19.1444L10.2029 19.1478L15.9108 0.342212C15.9471 0.22242 16.0314 0.120977 16.1454 0.0597034L16.1481 0.05887C16.2018 0.0277353 16.2621 0.00836664 16.3246 0.00216861C16.3871 -0.00402942 16.4503 0.00309855 16.5096 0.0230356L16.507 0.0222023L17.456 0.26971C17.5847 0.305544 17.6897 0.38638 17.7528 0.49305L17.7536 0.49555C17.7867 0.549472 17.8072 0.609534 17.8136 0.671653C17.8201 0.733773 17.8125 0.796495 17.7913 0.85556L17.7922 0.852227ZM27.8459 10.335L20.7144 17.1227C20.6696 17.169 20.6152 17.2059 20.5546 17.2311C20.494 17.2564 20.4286 17.2694 20.3625 17.2694C20.2964 17.2694 20.231 17.2564 20.1704 17.2311C20.1098 17.2059 20.0554 17.169 20.0106 17.1227L19.2454 16.3944C19.1968 16.3517 19.158 16.2999 19.1315 16.2422C19.105 16.1846 19.0913 16.1223 19.0913 16.0593C19.0913 15.9964 19.105 15.9341 19.1315 15.8765C19.158 15.8188 19.1968 15.767 19.2454 15.7243L25.2598 9.99917L19.2454 4.274C19.1968 4.23131 19.158 4.17951 19.1315 4.12185C19.105 4.06419 19.0913 4.00193 19.0913 3.93899C19.0913 3.87604 19.105 3.81378 19.1315 3.75612C19.158 3.69847 19.1968 3.64666 19.2454 3.60398L20.0106 2.87562C20.0554 2.82936 20.1098 2.79244 20.1704 2.76719C20.231 2.74194 20.2964 2.72891 20.3625 2.72891C20.4286 2.72891 20.494 2.74194 20.5546 2.76719C20.6152 2.79244 20.6696 2.82936 20.7144 2.87562L27.8459 9.66416C27.8945 9.70684 27.9333 9.75865 27.9598 9.8163C27.9863 9.87396 28 9.93622 28 9.99917C28 10.0621 27.9863 10.1244 27.9598 10.182C27.9333 10.2397 27.8945 10.2915 27.8459 10.3342V10.335Z" fill="white"/>
</svg>
