<svg width="50" height="50" viewBox="0 0 50 50" fill="none" xmlns="http://www.w3.org/2000/svg">
<path d="M37.6945 47.2222H12.3056C11.7711 47.2096 11.2444 47.0918 10.7555 46.8756C10.2666 46.6593 9.82504 46.3488 9.45616 45.9619C9.08728 45.575 8.79825 45.1191 8.60559 44.6204C8.41293 44.1218 8.32042 43.59 8.33334 43.0556V15.5972H11.1111V43.0556C11.0979 43.2253 11.1183 43.396 11.1712 43.5578C11.2241 43.7196 11.3085 43.8693 11.4195 43.9984C11.5305 44.1274 11.666 44.2333 11.818 44.3099C11.9701 44.3864 12.1358 44.4322 12.3056 44.4445H37.6945C37.8642 44.4322 38.0299 44.3864 38.182 44.3099C38.3341 44.2333 38.4695 44.1274 38.5805 43.9984C38.6915 43.8693 38.7759 43.7196 38.8288 43.5578C38.8817 43.396 38.9022 43.2253 38.8889 43.0556V15.5972H41.6667V43.0556C41.6796 43.59 41.5871 44.1218 41.3944 44.6204C41.2018 45.1191 40.9127 45.575 40.5439 45.9619C40.175 46.3488 39.7335 46.6593 39.2446 46.8756C38.7556 47.0918 38.2289 47.2096 37.6945 47.2222V47.2222Z" fill="#FF0000"/>
<path d="M42.75 12.5H6.94443C6.57607 12.5 6.22281 12.3537 5.96234 12.0932C5.70187 11.8327 5.55554 11.4795 5.55554 11.1111C5.55554 10.7428 5.70187 10.3895 5.96234 10.129C6.22281 9.86856 6.57607 9.72223 6.94443 9.72223H42.75C43.1183 9.72223 43.4716 9.86856 43.7321 10.129C43.9925 10.3895 44.1389 10.7428 44.1389 11.1111C44.1389 11.4795 43.9925 11.8327 43.7321 12.0932C43.4716 12.3537 43.1183 12.5 42.75 12.5Z" fill="#FF0000"/>
<path d="M29.1666 18.0555H31.9444V38.8889H29.1666V18.0555Z" fill="#FF0000"/>
<path d="M18.0555 18.0555H20.8333V38.8889H18.0555V18.0555Z" fill="#FF0000"/>
<path d="M31.9444 8.13888H29.3055V5.55555H20.6944V8.13888H18.0555V5.55555C18.0547 4.84228 18.3282 4.156 18.8194 3.63888C19.3107 3.12176 19.9821 2.81343 20.6944 2.77777H29.3055C30.0179 2.81343 30.6893 3.12176 31.1805 3.63888C31.6718 4.156 31.9453 4.84228 31.9444 5.55555V8.13888Z" fill="#FF0000"/>
</svg>
