<svg width="84" height="84" viewBox="0 0 84 84" fill="none" xmlns="http://www.w3.org/2000/svg">
<path fill-rule="evenodd" clip-rule="evenodd" d="M31.2875 29.3708H46.7625V37.0791C48.9917 32.6458 54.7084 28.6625 63.2959 28.6625C79.7584 28.6625 83.6667 37.4875 83.6667 53.6791V83.6666H67V57.3666C67 48.1458 64.7709 42.9458 59.0959 42.9458C51.225 42.9458 47.9542 48.55 47.9542 57.3625V83.6666H31.2875V29.3708V29.3708ZM2.70837 82.9583H19.375V28.6625H2.70837V82.9583V82.9583ZM21.7625 10.9583C21.7632 12.3553 21.4861 13.7385 20.9475 15.0274C20.4089 16.3164 19.6194 17.4855 18.625 18.4666C16.61 20.4692 13.8826 21.5902 11.0417 21.5833C8.20583 21.5814 5.48467 20.4633 3.46671 18.4708C2.47592 17.4863 1.68915 16.3159 1.15147 15.0268C0.613797 13.7376 0.335787 12.3551 0.333374 10.9583C0.333374 8.13748 1.45837 5.43748 3.47087 3.44581C5.48706 1.45064 8.20937 0.332066 11.0459 0.333314C13.8875 0.333314 16.6125 1.45415 18.625 3.44581C20.6334 5.43748 21.7625 8.13748 21.7625 10.9583Z" fill="black"/>
</svg>
