<svg width="36" height="36" viewBox="0 0 36 36" fill="none" xmlns="http://www.w3.org/2000/svg">
<path fill-rule="evenodd" clip-rule="evenodd" d="M18 18C22.42 18 26 14.42 26 10C26 5.58 22.42 2 18 2C13.58 2 10 5.58 10 10C10 14.42 13.58 18 18 18ZM28 10C28 15.525 23.525 20 18 20C12.475 20 8 15.525 8 10C8 4.475 12.475 0 18 0C23.525 0 28 4.475 28 10ZM3.223 28.212C2.22 29.022 2 29.629 2 30V34H34V30C34 29.63 33.78 29.021 32.776 28.212C31.796 27.421 30.334 26.667 28.562 26.015C25.02 24.712 20.753 24 18 24C15.247 24 10.98 24.712 7.438 26.015C5.666 26.667 4.204 27.421 3.223 28.212ZM18 22C11.992 22 0 25.035 0 30V36H36V30C36 25.035 24.008 22 18 22Z" fill="black"/>
</svg>
