<svg width="28" height="20" viewBox="0 0 28 20" fill="none" xmlns="http://www.w3.org/2000/svg">
<path d="M3 0V13.563L0.719 15.877C0.262225 16.3321 0.00379225 16.9492 0 17.594C0.00315421 18.2311 0.257656 18.8413 0.708186 19.2918C1.15872 19.7423 1.76886 19.9968 2.406 20H25.594C26.2311 19.9968 26.8413 19.7423 27.2918 19.2918C27.7423 18.8413 27.9968 18.2311 28 17.594C27.9961 16.9487 27.7377 16.3309 27.281 15.875L25 13.562V0H3ZM5 2H23V13H5V2ZM14 3L12.5 12H14L15.5 3H14ZM10.086 5L8.367 7.068L8 7.5L8.367 7.932L10.086 10L11.172 9.137L9.81 7.5L11.17 5.863L10.087 5H10.086ZM17.914 5L16.828 5.863L18.19 7.5L16.83 9.137L17.915 10L19.634 7.932L20 7.5L19.633 7.068L17.914 5ZM4.437 15H23.562L25.875 17.281C25.9544 17.366 25.999 17.4777 26 17.594C26.0029 17.6481 25.9944 17.7022 25.975 17.7527C25.9556 17.8033 25.9258 17.8492 25.8875 17.8875C25.8492 17.9258 25.8033 17.9556 25.7527 17.975C25.7022 17.9944 25.6481 18.0029 25.594 18H2.406C2.35192 18.0029 2.29785 17.9944 2.24728 17.975C2.19672 17.9556 2.1508 17.9258 2.11251 17.8875C2.07422 17.8492 2.04441 17.8033 2.02503 17.7527C2.00565 17.7022 1.99712 17.6481 2 17.594C2 17.484 2.047 17.36 2.125 17.281L4.438 15H4.437Z" fill="white"/>
</svg>
