<svg width="60" height="60" viewBox="0 0 60 60" fill="none" xmlns="http://www.w3.org/2000/svg">
<path d="M11.6667 9.99996H38.3334V26.3333H41.6667V9.99996C41.6667 9.1159 41.3155 8.26806 40.6904 7.64294C40.0653 7.01782 39.2174 6.66663 38.3334 6.66663H11.6667C10.7827 6.66663 9.93481 7.01782 9.30968 7.64294C8.68456 8.26806 8.33337 9.1159 8.33337 9.99996V50C8.33337 50.884 8.68456 51.7319 9.30968 52.357C9.93481 52.9821 10.7827 53.3333 11.6667 53.3333H38.3334C39.2174 53.3333 40.0653 52.9821 40.6904 52.357C41.3155 51.7319 41.6667 50.884 41.6667 50H11.6667V9.99996Z" fill="white"/>
<path d="M46.9333 28.8001C46.6145 28.527 46.2043 28.3843 45.7849 28.4005C45.3654 28.4167 44.9675 28.5906 44.6707 28.8874C44.3739 29.1843 44.2 29.5822 44.1838 30.0016C44.1676 30.4211 44.3103 30.8312 44.5833 31.1501L50.2166 36.6667H26.05C25.6079 36.6667 25.184 36.8423 24.8715 37.1549C24.5589 37.4674 24.3833 37.8914 24.3833 38.3334C24.3833 38.7754 24.5589 39.1993 24.8715 39.5119C25.184 39.8245 25.6079 40.0001 26.05 40.0001H50.2166L44.5833 45.7667C44.4088 45.9161 44.2671 46.1 44.1671 46.3068C44.067 46.5135 44.0108 46.7388 44.002 46.9683C43.9931 47.1978 44.0318 47.4267 44.1156 47.6406C44.1994 47.8545 44.3265 48.0487 44.4889 48.2111C44.6513 48.3736 44.8455 48.5007 45.0594 48.5845C45.2733 48.6682 45.5022 48.7069 45.7317 48.6981C45.9612 48.6892 46.1865 48.633 46.3932 48.5329C46.6 48.4329 46.7839 48.2912 46.9333 48.1167L56.6666 38.4501L46.9333 28.8001Z" fill="white"/>
</svg>
