<svg width="14" height="14" viewBox="0 0 14 14" fill="none" xmlns="http://www.w3.org/2000/svg">
<path d="M7.00002 11.6667C9.56669 11.6667 11.6667 9.56667 11.6667 7C11.6667 4.43333 9.56669 2.33333 7.00002 2.33333C4.43335 2.33333 2.33335 4.43333 2.33335 7C2.33335 9.56667 4.43335 11.6667 7.00002 11.6667ZM7.00002 1.16667C10.2084 1.16667 12.8334 3.79167 12.8334 7C12.8334 10.2083 10.2084 12.8333 7.00002 12.8333C3.79169 12.8333 1.16669 10.2083 1.16669 7C1.16669 3.79167 3.79169 1.16667 7.00002 1.16667ZM8.92502 9.45L8.16669 9.91667L6.41669 6.88334V4.08333H7.29169V6.65L8.92502 9.45Z" fill="black"/>
</svg>
