<svg width="101" height="101" viewBox="0 0 101 101" fill="none" xmlns="http://www.w3.org/2000/svg">
<path d="M50.1667 93.0238C72.1667 93.0238 93.0236 72.1667 93.0236 50.1667C93.0236 28.1667 72.1665 7.30953 50.1665 7.30953C28.1665 7.30953 7.30937 28.1667 7.30937 50.1667C7.30937 72.1667 28.1667 93.0238 50.1667 93.0238ZM50.1667 0.166683C77.6667 0.166683 100.167 22.6667 100.167 50.1667C100.167 77.6667 77.6667 100.167 50.1667 100.167C22.6667 100.167 0.166687 77.6667 0.166687 50.1667C0.166687 22.6667 22.6667 0.166683 50.1667 0.166683ZM66.6667 71.1667L60.1667 75.1667L45.1667 49.1667V25.1667H52.6667V47.1667L66.6667 71.1667Z" fill="black"/>
</svg>
